PathFileType	4	(X/Y/Z)	../Python\walking\Walking11\task.trc
DataRate	CameraRate	NumFrames	NumMarkers	Units	OrigDataRate	OrigDataStartFrame	OrigNumFrames
200.000000	200.000000	5	30	mm	200.000000	448	512
Frame#	Time	CLAV			STRN			RASI			LASI			RTH1			RTH2			RTH3			RTB1			RTB2			RTB3			RD5M			RTOE			LTH1			LTH2			LTH3			LTB1			LTB2			LTB3			LTOE			LD5M			PE03			PE02			RPSI			LPSI			T10			LHEE			C7			RHEE			RBAK			PE01			
		X1	Y1	Z1	X2	Y2	Z2	X3	Y3	Z3	X4	Y4	Z4	X5	Y5	Z5	X6	Y6	Z6	X7	Y7	Z7	X8	Y8	Z8	X9	Y9	Z9	X10	Y10	Z10	X11	Y11	Z11	X12	Y12	Z12	X13	Y13	Z13	X14	Y14	Z14	X15	Y15	Z15	X16	Y16	Z16	X17	Y17	Z17	X18	Y18	Z18	X19	Y19	Z19	X20	Y20	Z20	X21	Y21	Z21	X22	Y22	Z22	X23	Y23	Z23	X24	Y24	Z24	X25	Y25	Z25	X26	Y26	Z26	X27	Y27	Z27	X28	Y28	Z28	X29	Y29	Z29	X30	Y30	Z30	

449	2.24	2544.012939453126	1432.748413085938	205.9317321777345	2605.022460937501	1241.226440429688	219.3368682861329	2577.230957031251	1037.676513671875	374.3608398437501	2576.303222656251	1011.685913085938	102.0445251464844	2539.090087890626	771.3052368164067	405.8557128906252	2481.779785156251	747.0153808593752	405.0568542480471	2501.584716796876	704.0311279296877	387.3137817382815	2498.932128906251	362.6427001953126	325.0812072753907	2456.766845703126	318.6486816406251	325.891571044922	2489.887695312501	285.058074951172	310.5701904296876	2551.508789062501	11.61250686645508	300.0260620117189	2612.477539062501	24.88843917846681	255.9398956298829	2554.076904296876	702.8007812500002	77.95465850830081	2547.007812500001	659.134216308594	101.9581985473633	2601.104003906251	639.4841918945315	79.9345626831055	2543.376220703126	424.5260009765627	87.44285583496097	2497.306152343751	412.5145568847659	101.6816787719727	2510.092041015626	352.8638610839845	90.06616973876956	2433.755859375001	69.63497161865237	136.3409271240235	2393.331542968751	82.91591644287112	97.46242523193365	2404.438964843751	1060.590209960938	216.5750274658204	2408.697265625001	1064.791259765625	267.336395263672	2414.868652343751	1078.546997070313	289.076873779297	2410.134765625001	1070.800659179688	189.9455718994141	2380.855957031251	1260.91650390625	215.2435302734376	2286.891845703126	209.6169891357423	155.4297485351563	2428.575195312501	1523.113647460938	193.3903350830079	2394.198730468751	24.00312995910646	216.2716522216798	2411.201416015626	1439.932006835938	368.3370666503907	2423.292968750001	1120.827880859375	235.0749053955079	
450	2.245	2550.419921875001	1432.906616210938	206.2569274902345	2611.184570312501	1241.339721679688	220.0674438476564	2582.497070312501	1037.437622070313	375.1727294921876	2582.625732421876	1012.380920410157	102.9182434082032	2543.353271484376	770.9185180664067	405.8547973632815	2485.976562500001	746.908142089844	404.9585876464846	2505.589843750001	703.8414306640627	387.2223815917971	2501.111328125001	362.5510253906251	324.7667236328126	2458.669189453126	318.8016357421876	325.571014404297	2491.588378906251	285.007293701172	310.2857666015626	2551.525390625001	11.61936950683594	300.0102844238282	2612.624267578126	24.82683753967287	255.9424133300782	2563.802490234376	704.2890625000002	77.43170928955081	2556.776611328126	660.3225708007815	100.8729248046876	2611.511718750001	641.539245605469	79.83475494384768	2556.421142578126	423.8569335937502	87.6586608886719	2510.542968750001	410.9155578613284	101.690170288086	2524.671386718751	351.504119873047	90.63714599609378	2455.444824218751	67.68132781982425	135.926498413086	2414.526123046876	79.98768615722659	97.22843933105474	2410.317382812501	1060.8505859375	216.2946929931642	2414.430908203126	1064.832397460938	267.0956115722657	2420.509277343751	1078.515991210938	288.8847961425782	2416.118896484376	1071.151977539063	189.7191925048829	2387.022705078126	1261.275390625	215.7002105712892	2304.421630859376	203.0619201660157	155.9631805419922	2435.097167968751	1523.3466796875	193.5424194335939	2394.241455078126	24.26608467102052	216.1049652099611	2417.567382812501	1440.484008789063	368.6788635253907	2429.211181640626	1120.993286132813	235.1248016357423	
451	2.25	2556.830322265626	1433.025756835938	206.5910644531251	2617.350585937501	1241.41845703125	220.7940979003907	2587.785644531251	1037.172119140625	375.9291992187501	2588.939208984376	1013.021606445313	103.7494812011719	2547.602539062501	770.522094726563	405.8595886230471	2490.156005859376	746.801940917969	404.8738708496096	2509.555908203126	703.644470214844	387.1493835449221	2503.261230468751	362.4581909179689	324.471649169922	2460.549560546876	318.9545288085939	325.2760314941407	2493.269531250001	284.9602355957032	310.0176696777345	2551.539062500001	11.627592086792	299.9965209960939	2612.758300781251	24.77388954162599	255.9439086914064	2573.510498046876	705.764587402344	76.84866333007815	2566.524169921876	661.5112304687502	99.72312927246099	2621.871337890626	643.5823364257815	79.72049713134768	2569.400634765626	423.0505371093752	87.87989044189456	2523.740478515626	409.1512451171877	101.6954727172852	2539.253173828126	350.0169982910157	91.23834991455081	2477.299560546876	65.70233917236331	135.4947509765626	2435.885009765626	77.0173263549805	97.00877380371099	2416.207763671876	1061.072265625	216.0057525634767	2420.177246093751	1064.84423828125	266.8417358398439	2426.166259765626	1078.46142578125	288.679656982422	2422.113525390626	1071.458374023438	189.4827575683594	2393.194091796876	1261.595092773438	216.1380767822267	2322.216552734376	196.3018188476564	156.5879821777344	2441.620849609376	1523.535278320313	193.7018585205079	2394.287109375001	24.52676391601564	215.950164794922	2423.927490234376	1440.99169921875	369.0209045410157	2435.137939453126	1121.123291015625	235.1499176025392	
452	2.255	2563.244873046876	1433.104614257813	206.9325103759767	2623.521728515626	1241.461181640625	221.5128479003907	2593.100341796876	1036.877075195313	376.6276855468751	2595.244384765626	1013.604919433594	104.5334167480469	2551.836914062501	770.115112304688	405.869567871094	2494.315429687501	746.6965332031252	404.8015136718752	2513.481689453126	703.4401855468752	387.0945739746096	2505.378662109376	362.3644409179689	324.1971130371095	2462.402587890626	319.107635498047	325.006072998047	2494.926025390626	284.9166870117189	309.7666931152345	2551.549316406251	11.63704299926758	299.9849243164064	2612.879638671876	24.72924995422365	255.9439086914064	2583.187255859376	707.2165527343752	76.21440887451175	2576.242431640626	662.6926269531252	98.52877807617193	2632.169189453126	645.6010742187502	79.59896087646487	2582.306640625001	422.1167297363284	88.111198425293	2536.894531250001	407.2309265136721	101.7076034545899	2553.830078125001	348.4165039062501	91.86237335205081	2499.311767578126	63.71572113037112	135.058334350586	2457.406250000001	74.01799011230472	96.8103866577149	2422.112792968751	1061.255493164063	215.7124481201173	2425.939453125001	1064.827880859375	266.5789184570314	2431.843505859376	1078.384765625	288.4656677246095	2428.120605468751	1071.719848632813	189.2403411865235	2399.370605468751	1261.8740234375	216.5576782226564	2340.282226562501	189.3582305908204	157.2969360351563	2448.146972656251	1523.67822265625	193.8685302734376	2394.337890625001	24.78493118286134	215.8067779541017	2430.283935546876	1441.452880859375	369.3631286621095	2441.075439453126	1121.218383789063	235.1529846191407	
453	2.26	2569.664306640626	1433.1416015625	207.2797088623048	2629.698974609376	1241.466186523438	222.2199554443361	2598.444335937501	1036.549560546875	377.2667236328126	2601.542724609376	1014.128234863282	105.2663192749024	2556.056152343751	769.6970825195317	405.8840942382815	2498.453613281251	746.591491699219	404.7399902343752	2517.367675781251	703.2285766601565	387.057312011719	2507.460693359376	362.2700805664064	323.9440002441407	2464.224121093751	319.2612915039064	324.7600708007814	2496.553955078126	284.8764953613282	309.5335083007814	2551.556152343751	11.64762973785401	299.9754943847657	2612.989257812501	24.69240570068361	255.9420471191407	2592.818603515626	708.6347656250002	75.53888702392581	2585.924072265626	663.859802246094	97.31045532226568	2642.393066406251	647.5825805664065	79.47727203369143	2595.130126953126	421.0653076171877	88.35703277587893	2549.999755859376	405.1642150878909	101.7368164062501	2568.394042968751	346.716766357422	92.50167083740237	2521.471923828126	61.73952484130862	134.6305389404297	2479.087646484376	71.00291442871097	96.64064788818365	2428.034912109376	1061.400512695313	215.4183654785157	2431.719726562501	1064.7841796875	266.3106689453126	2437.543701171876	1078.287353515625	288.2464599609376	2434.142822265626	1071.93603515625	188.9954071044922	2405.553222656251	1262.110595703125	216.9596252441407	2358.622802734376	182.2539672851563	158.0818939208985	2454.675781250001	1523.774291992188	194.0423126220704	2394.395751953126	25.04084777832033	215.6738281250001	2436.638427734376	1441.865234375	369.7055053710939	2447.025390625001	1121.278442382813	235.1364593505861	
